<svg width="512" height="512" viewBox="0 0 512 512" fill="none" xmlns="http://www.w3.org/2000/svg">
  <rect width="512" height="512" rx="96" fill="#2563EB"/>
  <path d="M108 135C108 104.072 133.072 79 164 79H348C378.928 79 404 104.072 404 135V284C404 314.928 378.928 340 348 340H236L151 424V340H164C133.072 340 108 314.928 108 284V135Z" fill="white"/>
  <path d="M171 248C201 182 257 182 287 248" stroke="#2563EB" stroke-width="34" stroke-linecap="round"/>
  <path d="M227 268C251 226 294 226 318 268" stroke="#14B8A6" stroke-width="34" stroke-linecap="round"/>
  <circle cx="172" cy="270" r="25" fill="#F97316"/>
  <circle cx="335" cy="282" r="25" fill="#2563EB"/>
</svg>
